<?xml version="1.0" standalone="no"?>
<!DOCTYPE svg PUBLIC "-//W3C//DTD SVG 20010904//EN"
 "http://www.w3.org/TR/2001/REC-SVG-20010904/DTD/svg10.dtd">
<svg version="1.0" xmlns="http://www.w3.org/2000/svg"
 width="750.000000pt" height="750.000000pt" viewBox="0 0 750.000000 750.000000"
 preserveAspectRatio="xMidYMid meet">
<metadata>
Created by potrace 1.11, written by Peter Selinger 2001-2013
</metadata>
<g transform="translate(0.000000,750.000000) scale(0.100000,-0.100000)"
fill="#000000" stroke="none">
<path d="M0 3750 l0 -3750 3750 0 3750 0 0 3750 0 3750 -3750 0 -3750 0 0
-3750z m2931 3111 l29 -29 0 -1296 0 -1296 790 0 790 0 0 1296 0 1296 29 29
29 29 402 0 402 0 29 -29 29 -29 0 -1437 c0 -966 -3 -1443 -10 -1456 -16 -29
-67 -51 -101 -44 -16 4 -38 18 -49 32 -20 25 -20 38 -20 1404 l0 1379 -280 0
-280 0 0 -1290 c0 -923 -3 -1296 -11 -1313 -6 -14 -22 -30 -36 -36 -17 -8
-287 -11 -929 -11 l-906 0 -29 29 -29 29 0 1296 0 1296 -280 0 -280 0 0 -1379
0 -1380 -24 -28 c-34 -39 -98 -39 -132 0 l-24 28 0 1440 0 1441 29 29 29 29
402 0 402 0 29 -29z m-736 -3186 l25 -24 0 -1451 0 -1450 280 0 280 0 0 1350
0 1351 25 24 24 25 919 0 919 0 27 -26 26 -27 0 -1348 0 -1349 280 0 280 0 0
1450 0 1451 25 24 c24 25 73 33 110 19 47 -18 45 36 45 -1567 l0 -1504 -26
-27 -27 -26 -398 0 c-270 0 -406 4 -422 11 -14 6 -30 22 -36 36 -8 17 -11 403
-11 1363 l0 1340 -790 0 -790 0 0 -1341 c0 -1384 1 -1366 -39 -1396 -22 -17
-798 -18 -834 -2 -14 6 -30 22 -36 36 -8 17 -11 445 -11 1519 0 1300 2 1499
15 1524 17 33 27 38 78 39 28 1 45 -6 62 -24z"/>
</g>
</svg>
